# xmcd
#
# Track frame offsets: 
#        150
#        12745
#        22605
#        29003
#        41502
#        54473
#        65855
#        74882
#        88650
#        95024
#        105930
#        118096
#        131621
#        141702
#        147745
#        169828
#        184221
#        197282
#        203304
#        213189
#
# Disc length: 2984 seconds
#
# Revision: 0
# Processed by: cddbd v1.5.2PL0 Copyright (c) Steve Scherf et al.
# Submitted via: ExactAudioCopy v0.99pb4
#
DISCID=310ba614
DTITLE=Grigore Lese - Hori din Tara Lapusului
DYEAR=2002
DGENRE=Folklore
TTITLE0=La hore lapuseneasca
TTITLE1=Saraca s-a me inima
TTITLE2=Zas-o mândra s-o astept
TTITLE3=Pasaruca di pa munte
TTITLE4=Nu-i lumina nicaieri
TTITLE5=Doru si jelea ma strâca
TTITLE6=Asara pa la opt ceas
TTITLE7=N-am gandit ca oi ajunge
TTITLE8=Mândra floare-i norocu'
TTITLE9=Canta cucu'n lemn uscat
TTITLE10=Pâna-n zâua dui-dui-dui
TTITLE11=Când m-o facut mama'n lume
TTITLE12=Mândru se vede de luna
TTITLE13=Dragostile nu-s curate
TTITLE14=Batrânit-am da nu-i modru
TTITLE15=Mama inima mi-i arsa
TTITLE16=Când îmi vine dor de duca
TTITLE17=Când o hi nunta mândrii
TTITLE18=Sâmbata de dimineata
TTITLE19=Omu-n lume cât tráie
EXTD=
EXTT0=
EXTT1=
EXTT2=
EXTT3=
EXTT4=
EXTT5=
EXTT6=
EXTT7=
EXTT8=
EXTT9=
EXTT10=
EXTT11=
EXTT12=
EXTT13=
EXTT14=
EXTT15=
EXTT16=
EXTT17=
EXTT18=
EXTT19=
PLAYORDER=
